# xmcd CD database file
#
# Track frame offsets:
#	150
#	25662
#	59165
#	77712
#	112242
#	135147
#	149945
#
# Disc length: 2166 seconds
#
# Revision: 0
# Processed by: cddbd v1.5.1PL0 Copyright (c) Steve Scherf et al.
# Submitted via: CDex 1.51
#
DISCID=66087407
DTITLE=Eddie Harris - Instant Death
DYEAR=1972
DGENRE=Jazz
TTITLE0=Instant Death
TTITLE1=Little Wes
TTITLE2=Zambezi Dance
TTITLE3=Summer's on Its Way
TTITLE4=Nightcap
TTITLE5=Superfluous
TTITLE6=Tampion
EXTD=YEAR: 1972
EXTT0=
EXTT1=
EXTT2=
EXTT3=
EXTT4=
EXTT5=
EXTT6=
PLAYORDER=
